<?xml version="1.0" standalone="no"?>
<!DOCTYPE svg PUBLIC "-//W3C//DTD SVG 20010904//EN"
 "http://www.w3.org/TR/2001/REC-SVG-20010904/DTD/svg10.dtd">
<svg version="1.0" xmlns="http://www.w3.org/2000/svg"
 width="4096.000000pt" height="4096.000000pt" viewBox="0 0 4096.000000 4096.000000"
 preserveAspectRatio="xMidYMid meet">
<metadata>
Created by potrace 1.11, written by Peter Selinger 2001-2013
</metadata>
<g transform="translate(0.000000,4096.000000) scale(0.100000,-0.100000)"
fill="#000000" stroke="none">
<path d="M12655 36038 c-2 -7 -142 -886 -310 -1953 -168 -1067 -309 -1948
-311 -1957 -5 -16 3 -18 60 -18 60 0 66 2 71 23 9 43 615 3879 615 3898 0 17
-8 19 -60 19 -40 0 -62 -4 -65 -12z"/>
<path d="M19995 35013 c-108 -9 -260 -38 -345 -65 -423 -134 -639 -436 -770
-1073 -220 -1072 -123 -1614 317 -1759 114 -37 187 -46 393 -46 380 0 703 38
1052 122 l127 31 6 39 c4 22 5 41 3 43 -2 3 -101 -9 -219 -25 -438 -59 -613
-73 -924 -74 -288 -1 -290 -1 -367 25 -141 48 -229 123 -288 243 -69 141 -97
359 -80 626 10 151 28 321 35 328 2 2 41 -6 87 -17 304 -76 850 -103 1158 -56
315 48 577 152 734 292 118 105 225 276 260 418 40 160 45 352 11 475 -74 276
-321 429 -755 469 -107 10 -342 12 -435 4z m462 -134 c351 -39 554 -179 604
-417 15 -74 6 -287 -16 -367 -78 -285 -311 -477 -697 -576 -302 -76 -786 -90
-1233 -33 -66 9 -132 18 -146 22 l-26 7 42 210 c82 405 148 601 258 765 69
104 194 213 315 274 110 56 306 106 467 119 97 8 344 6 432 -4z"/>
<path d="M27715 35013 c-243 -21 -476 -95 -621 -199 -173 -122 -309 -321 -393
-572 -67 -200 -138 -541 -183 -877 -30 -218 -32 -597 -5 -725 53 -248 150
-397 316 -484 120 -63 198 -78 428 -83 377 -9 729 28 1106 118 119 29 127 32
133 57 3 15 8 35 11 46 5 16 1 18 -28 13 -71 -13 -436 -58 -621 -78 -276 -29
-677 -37 -788 -15 -313 59 -449 280 -450 731 0 121 26 473 35 483 2 2 44 -6
93 -17 417 -98 975 -106 1345 -20 443 104 716 335 808 684 30 113 37 343 15
439 -81 345 -416 511 -1016 504 -80 -1 -163 -3 -185 -5z m567 -147 c274 -50
434 -169 492 -364 37 -127 29 -303 -21 -455 -105 -316 -429 -511 -963 -579
-138 -17 -634 -17 -799 0 -140 15 -312 40 -318 46 -6 6 62 346 98 487 51 205
122 381 201 497 47 70 165 183 235 225 118 72 279 126 438 146 44 6 94 13 110
15 71 10 444 -3 527 -18z"/>
<path d="M14395 34995 c-266 -43 -560 -146 -842 -296 -61 -32 -114 -59 -117
-59 -3 0 -6 75 -6 166 l0 165 -37 -3 -37 -3 -223 -1405 c-122 -773 -222 -1415
-222 -1427 -1 -21 3 -23 62 -23 l62 0 189 1198 c103 658 191 1209 193 1223 4
23 23 36 132 87 398 190 687 262 1051 263 124 0 170 -4 233 -20 279 -73 447
-302 447 -611 0 -56 -49 -391 -160 -1088 -88 -554 -162 -1017 -165 -1029 -5
-22 -3 -23 60 -23 59 0 65 2 70 23 2 12 75 463 161 1002 98 617 158 1020 161
1088 18 373 -163 652 -492 758 -60 19 -96 22 -250 25 -123 2 -209 -1 -270 -11z"/>
<path d="M23160 34990 c-268 -31 -517 -113 -860 -283 -102 -51 -188 -93 -192
-95 -5 -2 -8 47 -8 110 0 62 -3 143 -7 181 -6 65 -7 67 -34 67 -22 0 -30 -6
-34 -22 -6 -30 -445 -2817 -445 -2829 0 -5 29 -9 65 -9 39 0 65 4 65 11 0 5
83 539 185 1185 102 647 185 1179 185 1183 0 7 324 156 465 214 167 69 353
123 510 148 151 25 535 14 637 -17 17 -5 19 0 34 87 l6 37 -74 17 c-86 20
-381 29 -498 15z"/>
<path d="M24545 34976 c-216 -34 -367 -118 -466 -260 -85 -121 -116 -222 -163
-543 -59 -396 -20 -556 157 -642 116 -57 184 -63 792 -71 590 -7 582 -6 688
-62 114 -61 178 -166 185 -303 4 -83 -41 -391 -74 -504 -41 -141 -130 -264
-230 -314 -126 -64 -84 -61 -934 -67 l-775 -5 -3 -36 -3 -37 83 -6 c323 -25
1055 -50 1287 -44 212 6 297 22 408 74 135 64 244 207 292 385 34 125 81 430
81 526 0 205 -87 356 -255 445 -137 71 -127 70 -755 78 -614 8 -643 10 -732
64 -73 44 -101 100 -106 215 -6 114 48 479 89 608 64 199 182 310 390 365 82
21 99 22 800 25 l717 4 5 37 c4 20 5 37 4 38 -4 4 -402 25 -642 34 -339 13
-741 11 -840 -4z"/>
<path d="M16000 34958 c1 -7 162 -650 358 -1428 l358 -1415 79 0 79 0 693
1195 c670 1155 772 1337 807 1446 22 68 35 153 29 187 -5 24 -10 27 -44 27
-23 0 -41 -5 -43 -12 -24 -90 -55 -172 -94 -249 -53 -104 -1402 -2422 -1407
-2417 -2 2 -157 601 -344 1332 -188 731 -344 1333 -347 1337 -9 15 -124 11
-124 -3z"/>
<path d="M12695 30099 c-151 -13 -433 -63 -606 -108 -564 -146 -1187 -424
-1711 -764 -60 -38 -108 -74 -108 -79 0 -11 141 -218 148 -218 3 0 60 35 126
79 306 200 682 391 1056 536 723 282 1320 354 1948 234 575 -109 1272 -400
1852 -772 658 -423 1420 -734 2055 -840 398 -67 823 -61 1210 18 600 122 1274
409 1855 790 698 457 1492 766 2175 846 140 16 467 17 610 0 486 -55 994 -214
1525 -477 257 -126 348 -178 581 -325 603 -382 1191 -644 1764 -787 343 -86
620 -118 949 -109 574 15 1153 176 1811 502 280 138 613 336 738 437 l28 23
-76 105 c-41 58 -79 105 -83 105 -4 0 -72 -43 -152 -96 -242 -161 -502 -303
-783 -428 -711 -317 -1348 -433 -1942 -356 -661 86 -1413 387 -2137 853 -431
279 -986 533 -1473 677 -566 167 -1067 204 -1589 119 -651 -106 -1424 -423
-2086 -854 -840 -548 -1735 -844 -2465 -817 -251 10 -447 39 -720 109 -523
132 -1113 394 -1620 718 -558 357 -1155 624 -1724 771 -185 48 -450 94 -624
108 -146 13 -385 12 -532 0z"/>
<path d="M12680 26279 c-372 -35 -867 -166 -1295 -344 -194 -80 -574 -267
-745 -365 -150 -87 -370 -229 -370 -240 0 -7 122 -193 141 -214 4 -4 58 26
121 67 422 278 1018 552 1503 692 349 100 611 139 935 139 248 0 386 -14 631
-64 559 -114 1226 -396 1794 -758 737 -470 1502 -769 2215 -869 178 -25 614
-24 795 1 700 96 1408 375 2108 828 702 455 1464 757 2132 845 157 20 533 23
675 5 724 -94 1408 -364 2200 -869 155 -99 332 -197 535 -298 556 -274 1069
-440 1585 -512 178 -25 614 -24 795 1 602 83 1207 300 1835 659 108 61 415
261 424 276 8 13 -145 223 -159 217 -7 -2 -50 -31 -96 -64 -340 -242 -905
-518 -1354 -662 -383 -122 -703 -175 -1060 -174 -304 1 -578 42 -902 134 -529
150 -1017 374 -1563 720 -454 287 -873 488 -1343 645 -638 212 -1187 265
-1762 168 -641 -107 -1416 -424 -2060 -843 -541 -351 -1083 -596 -1610 -726
-522 -129 -954 -134 -1475 -19 -550 123 -1182 395 -1744 752 -554 353 -1177
630 -1724 767 -198 50 -429 90 -602 106 -134 12 -424 11 -560 -1z"/>
<path d="M12720 22463 c-595 -60 -1129 -226 -1770 -549 -329 -165 -687 -383
-676 -410 4 -11 94 -147 137 -207 3 -5 57 25 120 66 372 244 927 509 1349 646
255 81 532 144 765 173 160 19 538 16 694 -6 663 -93 1386 -376 2071 -811 658
-419 1391 -721 2010 -829 248 -43 343 -51 600 -50 252 1 383 13 610 55 610
116 1269 393 1895 799 684 444 1435 742 2107 836 171 24 564 25 738 1 670 -92
1372 -369 2081 -819 436 -277 909 -505 1369 -658 671 -224 1227 -272 1835
-159 543 101 1153 344 1718 685 134 81 327 210 327 219 0 8 -151 215 -157 215
-3 0 -64 -40 -137 -89 -418 -282 -969 -540 -1439 -675 -610 -175 -1122 -187
-1712 -40 -544 136 -1152 406 -1676 745 -477 308 -1039 567 -1547 713 -357
103 -614 145 -943 153 -393 10 -703 -33 -1133 -158 -493 -142 -1108 -430
-1571 -734 -545 -358 -1157 -626 -1700 -743 -576 -125 -1052 -101 -1680 85
-443 131 -1012 397 -1440 673 -728 470 -1572 791 -2269 865 -130 13 -475 19
-576 8z"/>
<path d="M12705 18643 c-583 -70 -1013 -196 -1595 -468 -270 -125 -703 -371
-814 -460 l-29 -23 73 -109 c40 -59 74 -109 75 -111 2 -2 60 35 131 81 332
216 775 436 1153 573 822 299 1453 330 2215 109 477 -138 1011 -381 1451 -660
303 -192 534 -320 804 -446 534 -247 1008 -389 1506 -450 131 -17 520 -17 660
-1 716 83 1474 376 2206 853 463 302 1022 561 1514 703 695 199 1267 193 1972
-20 450 -137 978 -386 1426 -675 715 -462 1517 -768 2252 -860 130 -17 520
-17 660 -1 524 60 1032 220 1594 501 268 135 585 324 720 429 l23 19 -78 111
-77 110 -107 -74 c-169 -116 -377 -237 -610 -353 -525 -262 -996 -411 -1465
-466 -164 -19 -465 -22 -615 -6 -668 73 -1444 369 -2164 828 -758 483 -1543
783 -2246 858 -177 19 -509 19 -680 0 -716 -81 -1537 -400 -2300 -895 -220
-142 -363 -223 -615 -346 -514 -250 -975 -392 -1445 -444 -127 -15 -450 -15
-580 -1 -538 59 -1162 267 -1755 588 -154 83 -222 123 -480 285 -709 444
-1538 751 -2209 817 -100 10 -500 13 -571 4z"/>
<path d="M12775 14829 c-675 -45 -1501 -332 -2242 -780 -130 -78 -263 -167
-263 -175 0 -6 67 -107 117 -176 l34 -48 102 69 c467 313 1138 610 1668 740
497 121 915 133 1384 40 579 -114 1266 -404 1849 -778 499 -321 1067 -581
1599 -731 708 -199 1307 -195 2024 16 460 135 1044 407 1443 673 711 475 1555
801 2249 871 592 59 1295 -97 2043 -453 235 -112 403 -207 738 -419 364 -230
844 -460 1260 -603 296 -102 615 -177 895 -211 167 -21 528 -23 685 -5 610 70
1259 295 1891 656 137 79 449 281 449 292 0 3 -34 54 -76 114 l-76 107 -146
-98 c-544 -364 -1243 -658 -1804 -760 -355 -64 -713 -68 -1063 -9 -594 99
-1384 423 -1950 799 -210 140 -573 337 -827 449 -516 228 -955 355 -1408 407
-163 19 -512 21 -660 5 -741 -85 -1565 -402 -2315 -891 -599 -391 -1284 -674
-1860 -769 -214 -35 -346 -44 -584 -38 -248 6 -425 29 -667 87 -548 131 -1177
407 -1709 750 -172 111 -360 218 -574 324 -806 404 -1556 589 -2206 545z"/>
<path d="M12755 11010 c-712 -49 -1620 -383 -2372 -872 l-122 -80 75 -113 76
-113 111 73 c482 315 1142 608 1661 735 301 74 509 100 790 100 435 0 897
-100 1416 -308 342 -137 763 -353 1015 -522 276 -185 706 -406 1086 -558 773
-309 1429 -393 2113 -271 601 107 1345 419 1923 807 479 321 1151 620 1684
751 335 82 546 106 869 98 516 -13 1030 -149 1649 -436 225 -105 557 -288 706
-391 238 -164 724 -415 1070 -553 1130 -450 2016 -440 3130 35 348 149 770
382 1012 560 l53 38 -77 108 c-42 59 -78 109 -79 111 -2 2 -34 -19 -71 -46
-170 -123 -406 -261 -682 -397 -473 -233 -908 -375 -1361 -442 -148 -21 -488
-29 -646 -15 -685 64 -1487 370 -2234 851 -696 448 -1491 752 -2190 836 -193
24 -534 24 -725 0 -704 -86 -1514 -400 -2235 -866 -730 -472 -1461 -754 -2129
-820 -133 -13 -400 -13 -532 0 -669 66 -1451 363 -2179 825 -799 509 -1659
823 -2390 875 -160 11 -250 11 -415 0z"/>
<path d="M12785 7194 c-207 -20 -278 -29 -395 -50 -625 -109 -1425 -438 -2017
-831 l-113 -75 67 -96 c36 -54 72 -103 79 -111 11 -12 32 -1 136 66 592 383
1330 684 1919 782 207 35 305 43 509 43 107 0 238 -5 290 -11 494 -58 981
-209 1525 -475 262 -128 407 -208 618 -343 712 -452 1455 -749 2142 -853 268
-41 684 -38 963 6 647 103 1359 393 2021 823 697 453 1474 757 2141 837 159
19 468 21 620 5 680 -75 1422 -358 2145 -819 592 -377 1262 -668 1835 -796
310 -69 531 -91 848 -83 250 6 398 23 629 72 568 120 1256 416 1789 771 78 51
146 99 152 106 7 10 -7 37 -55 103 -36 50 -71 98 -78 108 -12 17 -22 12 -136
-66 -389 -265 -919 -521 -1369 -661 -757 -235 -1388 -220 -2184 51 -426 145
-899 376 -1297 634 -695 449 -1500 759 -2194 845 -170 22 -561 24 -710 5 -760
-95 -1539 -399 -2315 -901 -696 -450 -1434 -728 -2095 -790 -619 -57 -1346
116 -2130 508 -210 104 -357 187 -545 307 -755 479 -1524 779 -2233 871 -109
14 -482 26 -562 18z"/>
</g>
</svg>
